# xmcd
#
# Track frame offsets: 
#        150
#        13265
#        32445
#        48517
#        66796
#        81732
#        105982
#        121773
#        136314
#        153316
#        173090
#        190631
#        208185
#        226194
#        238688
#        254415
#        265435
#        278167
#        294567
#        310566
#        327619
#        341261
#
# Disc length: 4789 seconds
#
# Revision: 0
# Processed by: cddbd v1.5.2PL0 Copyright (c) Steve Scherf et al.
# Submitted via: ExactAudioCopy v0.99pb4
#
DISCID=3912b316
DTITLE=Various Artist - prevue promo 1123A-2
DYEAR=2003
DGENRE=pop
TTITLE0=Thorns - Blue
TTITLE1=Phoebe Snow - Sahara(Acoustic Version)
TTITLE2=Nick Lachey - This I Swear
TTITLE3=Wynonna - Heaven Help Me
TTITLE4=ILona Knopfler - Time Of The Season
TTITLE5=Meat Loaf - Couldn't Have Said It Better(Said It Better Edit)
TTITLE6=Tarralyn -  Up Against All Odds
TTITLE7=Pink - Trouble
TTITLE8=Blaque - I'm Good(Radio Edit  Hook Intro)
TTITLE9=Nappy Roots - Sick And Tired (Edited)
TTITLE10=Rah Digga - Party and Bullsxxt(LYRIC! - "Radio Edit")
TTITLE11=Rah Digga - Party and Bullsxxt(LYRIC! - "Alt. Radio Edit")
TTITLE12=Blind Boys Of Alabama, The and Tom Waits - Go Tell It On The 
TTITLE12=Mountain
TTITLE13=June Carter Cash - Keep On The Sunny Side
TTITLE14=Robben Ford - Keep On Running
TTITLE15=Super Furry Animals - Golden Retriever(Song Correction)
TTITLE16=Hot Hot Heat - Talk To Me, Dance With Me
TTITLE17=Rapture, The - House Of Jealous Lovers
TTITLE18=Lost Trailers, The - Longfall
TTITLE19=P.O.D. - Will You
TTITLE20=Pennywise - Waiting
TTITLE21=To My Surprise - Blue
EXTD=
EXTT0=
EXTT1=
EXTT2=
EXTT3=
EXTT4=
EXTT5=
EXTT6=
EXTT7=
EXTT8=
EXTT9=
EXTT10=
EXTT11=
EXTT12=
EXTT13=
EXTT14=
EXTT15=
EXTT16=
EXTT17=
EXTT18=
EXTT19=
EXTT20=
EXTT21=
PLAYORDER=
